<svg xmlns="http://www.w3.org/2000/svg" width="159" height="58" viewBox="0 0 159 58">
    <g fill="none" fill-rule="evenodd">
        <path fill="#000" stroke="#979797" stroke-width="2" d="M12.1 56.997c-.448 0-.883-.006-1.326-.016a18.473 18.473 0 0 1-2.74-.239 8.613 8.613 0 0 1-2.428-.802 7.913 7.913 0 0 1-2.048-1.487 7.84 7.84 0 0 1-1.497-2.045 8.42 8.42 0 0 1-.796-2.426 18.14 18.14 0 0 1-.243-2.745C1.013 46.927 1 45.9 1 45.9V12.08s.013-1.01.022-1.308c.012-.92.092-1.834.242-2.74.14-.848.409-1.668.797-2.434A7.848 7.848 0 0 1 3.55 3.552a8.18 8.18 0 0 1 2.055-1.498 8.572 8.572 0 0 1 2.425-.796 18.592 18.592 0 0 1 2.748-.24L12.1 1h134.794l1.339.019c.913.01 1.823.09 2.723.237a8.697 8.697 0 0 1 2.45.802 8.196 8.196 0 0 1 3.54 3.543c.382.762.646 1.576.784 2.414.152.914.237 1.838.255 2.763.004.414.004.86.004 1.303.012.549.012 1.071.012 1.598v30.64c0 .531 0 1.051-.012 1.574 0 .476 0 .912-.006 1.361a18.5 18.5 0 0 1-.25 2.713 8.396 8.396 0 0 1-.792 2.445 7.986 7.986 0 0 1-1.49 2.029 7.877 7.877 0 0 1-2.05 1.496c-.77.39-1.595.662-2.445.805-.906.148-1.822.227-2.74.239-.429.01-.879.016-1.316.016L145.31 57 12.1 56.997z"/>
        <path fill="#FFF" d="M52.215 22.32h4.501l-2.219-6.528h-.061l-2.22 6.529zm5.091 1.857h-5.68l-1.364 4.022h-2.405l5.38-14.882h2.5L61.114 28.2h-2.446l-1.363-4.022zM70.441 22.774c0-2.196-1.137-3.64-2.87-3.64-1.704 0-2.85 1.475-2.85 3.64 0 2.187 1.146 3.65 2.85 3.65 1.733 0 2.87-1.433 2.87-3.65m2.292 0c0 3.372-1.807 5.539-4.533 5.539a3.688 3.688 0 0 1-3.418-1.899h-.052v5.374H62.5V17.349h2.159v1.805h.04a3.856 3.856 0 0 1 3.46-1.918c2.757 0 4.574 2.177 4.574 5.538M82.398 22.774c0-2.196-1.137-3.64-2.87-3.64-1.705 0-2.85 1.475-2.85 3.64 0 2.187 1.145 3.65 2.85 3.65 1.733 0 2.87-1.433 2.87-3.65m2.293 0c0 3.372-1.808 5.539-4.536 5.539a3.686 3.686 0 0 1-3.416-1.899h-.052v5.374h-2.23V17.349h2.159v1.805h.04a3.853 3.853 0 0 1 3.459-1.918c2.758 0 4.576 2.177 4.576 5.538M92.591 24.052c.166 1.476 1.601 2.446 3.562 2.446 1.88 0 3.233-.97 3.233-2.3 0-1.155-.816-1.847-2.747-2.321l-1.931-.465c-2.736-.66-4.006-1.938-4.006-4.011 0-2.568 2.24-4.332 5.42-4.332 3.15 0 5.309 1.764 5.38 4.332h-2.251c-.135-1.486-1.364-2.382-3.16-2.382-1.795 0-3.025.908-3.025 2.228 0 1.051.784 1.671 2.706 2.145l1.64.401c3.059.723 4.327 1.95 4.327 4.126 0 2.785-2.22 4.528-5.75 4.528-3.305 0-5.536-1.703-5.68-4.395h2.282zM106.554 14.782v2.567h2.066v1.764h-2.066v5.981c0 .928.414 1.362 1.32 1.362.246-.004.491-.022.735-.051v1.752c-.408.076-.823.111-1.239.104-2.198 0-3.057-.825-3.057-2.929v-6.22h-1.58V17.35h1.58v-2.567h2.241zM117.848 22.774c0-2.342-1.075-3.724-2.88-3.724-1.808 0-2.882 1.393-2.882 3.724 0 2.351 1.074 3.723 2.881 3.723 1.806 0 2.88-1.372 2.88-3.723m-8.031 0c0-3.413 2.011-5.559 5.151-5.559 3.149 0 5.153 2.146 5.153 5.56 0 3.422-1.993 5.559-5.153 5.559-3.16 0-5.151-2.137-5.151-5.56M121.959 17.35h2.128v1.846h.05a2.593 2.593 0 0 1 2.613-1.961 3.5 3.5 0 0 1 .764.084v2.083a3.117 3.117 0 0 0-1.002-.135 2.244 2.244 0 0 0-2.323 2.497v6.435h-2.23V17.35zM130.257 21.774h5.43a2.609 2.609 0 0 0-2.462-2.75c-.067-.004-.135-.005-.2-.004a2.75 2.75 0 0 0-2.768 2.73v.024zm7.538 3.238a4.36 4.36 0 0 1-4.678 3.322c-3.16 0-5.12-2.115-5.12-5.509 0-3.402 1.97-5.61 5.027-5.61 3.004 0 4.895 2.063 4.895 5.353v.763h-7.673v.134a2.828 2.828 0 0 0 2.923 3.073 2.458 2.458 0 0 0 2.509-1.526h2.117zM54.924 37.032l.963-.647a7.407 7.407 0 0 1 2.257 4.878l-1.266.197a6.162 6.162 0 0 0-1.954-4.428m-4.25 7.104l.093-1.147c.43.139.88.21 1.332.212.41 0 .568-.04.767-.317a6.39 6.39 0 0 0 .605-3.242c0-1.186-.368-1.53-1.305-1.53-.211 0-.45.014-.713.028a19.217 19.217 0 0 1-2.481 5.772l-1.095-.594a15.498 15.498 0 0 0 2.309-5.06c-.724.078-1.441.197-2.15.356l-.238-1.16a31.1 31.1 0 0 1 2.665-.356c.185-.875.321-1.76.41-2.65l1.293.145c-.119.804-.265 1.609-.45 2.4h.516c1.675 0 2.481.829 2.481 2.596a8.178 8.178 0 0 1-.765 3.914c-.31.574-.934.907-1.584.844a7.23 7.23 0 0 1-1.69-.211M61.292 35.57l.33-1.161c1.756.267 3.49.665 5.188 1.187l-.318 1.147a29.53 29.53 0 0 0-5.2-1.174m1.227 8.752l-.263-1.187c.33.028.765.04 1.03.04 2.613 0 3.602-.738 3.602-1.832 0-.87-.567-1.37-1.835-1.37a5.662 5.662 0 0 0-3.615 1.766l-1.017-.448a7.725 7.725 0 0 1 1.122-4.942l1.175.38a5.161 5.161 0 0 0-1.004 3.428 6.761 6.761 0 0 1 3.604-1.227c1.768 0 2.864.91 2.864 2.386 0 1.872-1.479 3.02-5.028 3.02-.172 0-.423-.014-.635-.014M79.222 34.08l.753-.357a9.01 9.01 0 0 1 .964 1.662l-.832.356a7.25 7.25 0 0 0-.885-1.662zm-1.65.132l.74-.357c.375.501.69 1.046.937 1.621l-.831.382a7.173 7.173 0 0 0-.846-1.646zm-5.568 9.2a8.341 8.341 0 0 0 3.55-2.295 15.086 15.086 0 0 0-2.467-1.66l.724-.91c.883.45 1.723.98 2.508 1.581a8.337 8.337 0 0 0 1.294-3.045h-3.366a13.595 13.595 0 0 1-2.878 3.31l-.963-.83a12.512 12.512 0 0 0 3.67-5.036l1.266.304c-.144.37-.29.75-.461 1.107h3.273l.936.436a9.997 9.997 0 0 1-6.322 8.065l-.764-1.028zM84.998 44.386l-.673-1.068a5.524 5.524 0 0 0 4.645-5.811h-5.542v2.65h-1.333v-3.772h3.312v-1.937h1.332v1.937h2.468l1.214.343c-.158 3.744-1.411 6.604-5.423 7.658M93.24 42.977a10.263 10.263 0 0 0 7.616-5.484l.87.976a11.162 11.162 0 0 1-7.984 5.733l-.502-1.225zm-.25-6.499l.74-1.08a16.437 16.437 0 0 1 3.244 1.963l-.843 1.134a15.526 15.526 0 0 0-3.142-2.017zM105.548 42.397h5.674v-5.418h-5.674v5.418zm-1.308 1.213h8.301v-7.844h-8.3v7.844zM115.097 40.09h9.33v-1.345h-9.33zM132.207 34.633l.792-.37c.4.556.733 1.158.99 1.794l-.859.382a8.58 8.58 0 0 0-.923-1.806zm-1.505.567l.778-.368c.382.558.697 1.16.938 1.792l-.858.382a7.706 7.706 0 0 0-.858-1.806zm-3.1-.713h1.305v3.376a40.783 40.783 0 0 1 5.042 2.517l-.739 1.16a31.92 31.92 0 0 0-4.303-2.307v5.088h-1.305v-9.834zM34.319 29.421a6.922 6.922 0 0 1 3.303-5.813 7.104 7.104 0 0 0-5.595-3.02c-2.353-.247-4.636 1.406-5.836 1.406-1.222 0-3.068-1.382-5.057-1.341a7.45 7.45 0 0 0-6.27 3.82c-2.711 4.686-.69 11.576 1.907 15.364 1.3 1.858 2.818 3.93 4.806 3.856 1.944-.08 2.67-1.238 5.017-1.238 2.325 0 3.007 1.238 5.034 1.192 2.085-.034 3.4-1.865 4.655-3.738a15.353 15.353 0 0 0 2.128-4.33 6.694 6.694 0 0 1-4.092-6.158M30.49 18.095a6.82 6.82 0 0 0 1.562-4.887 6.956 6.956 0 0 0-4.496 2.324 6.492 6.492 0 0 0-1.604 4.705 5.748 5.748 0 0 0 4.538-2.142"/>
    </g>
</svg>
