<?xml version="1.0" encoding="utf-8"?>
<!-- Generator: Adobe Illustrator 25.2.1, SVG Export Plug-In . SVG Version: 6.00 Build 0)  -->
<svg version="1.1" id="Layer_1" xmlns="http://www.w3.org/2000/svg" xmlns:xlink="http://www.w3.org/1999/xlink" x="0px" y="0px"
	 viewBox="0 0 159 58" style="enable-background:new 0 0 159 58;" xml:space="preserve">
<style type="text/css">
	.st0{fill-rule:evenodd;clip-rule:evenodd;stroke:#A6A6A6;stroke-width:2;}
	.st1{fill:url(#SVGID_1_);}
	.st2{fill:url(#SVGID_2_);}
	.st3{fill:url(#SVGID_3_);}
	.st4{fill:url(#SVGID_4_);}
	.st5{opacity:0.2;enable-background:new    ;}
	.st6{opacity:0.12;enable-background:new    ;}
	.st7{opacity:0.25;fill:#FFFFFF;enable-background:new    ;}
	.st8{fill:#FFFFFF;}
</style>
<path id="Fill-3" class="st0" d="M12.1,57c-0.4,0-0.9,0-1.3,0c-0.9,0-1.8-0.1-2.7-0.2c-0.8-0.1-1.7-0.4-2.4-0.8
	c-0.8-0.4-1.4-0.9-2-1.5s-1.1-1.3-1.5-2c-0.4-0.8-0.7-1.6-0.8-2.4c-0.3-1-0.4-1.9-0.4-2.9c0-0.3,0-1.3,0-1.3V12.1c0,0,0-1,0-1.3
	C1,9.9,1.1,8.9,1.3,8c0.1-0.8,0.4-1.7,0.8-2.4c0.4-0.8,0.9-1.4,1.5-2s1.3-1.1,2.1-1.5C6.4,1.7,7.2,1.4,8,1.3C8.9,1.1,9.9,1,10.8,1
	h1.3h134.8h1.3c0.9,0,1.8,0.1,2.7,0.2s1.7,0.4,2.4,0.8c1.5,0.8,2.8,2,3.5,3.5c0.4,0.8,0.6,1.6,0.8,2.4c0.2,0.9,0.2,1.8,0.3,2.8
	c0,0.4,0,0.9,0,1.3c0,0.5,0,1.1,0,1.6v30.6c0,0.5,0,1.1,0,1.6s0,0.9,0,1.4c0,0.9-0.1,1.8-0.3,2.7c-0.1,0.9-0.4,1.7-0.8,2.4
	c-0.4,0.8-0.9,1.4-1.5,2s-1.3,1.1-2.1,1.5s-1.6,0.7-2.4,0.8c-0.9,0.1-1.8,0.2-2.7,0.2c-0.4,0-0.9,0-1.3,0h-1.6L12.1,57z"/>
<g>
	<g>
		
			<linearGradient id="SVGID_1_" gradientUnits="userSpaceOnUse" x1="-796.233" y1="165.1516" x2="-796.6425" y2="165.9458" gradientTransform="matrix(12.9343 0 0 25.07 10321.1982 -4124.6714)">
			<stop  offset="0" style="stop-color:#00A0FF"/>
			<stop  offset="1.000000e-02" style="stop-color:#00A1FF"/>
			<stop  offset="0.26" style="stop-color:#00BEFF"/>
			<stop  offset="0.51" style="stop-color:#00D2FF"/>
			<stop  offset="0.76" style="stop-color:#00DFFF"/>
			<stop  offset="1" style="stop-color:#00E3FF"/>
		</linearGradient>
		<path class="st1" d="M13.6,14.2c-0.4,0.5-0.6,1.1-0.6,1.7v26.2c0,0.6,0.2,1.2,0.6,1.7l0.1,0.1l14.7-14.7v-0.4L13.6,14.2
			C13.7,14.1,13.6,14.2,13.6,14.2z"/>
		
			<linearGradient id="SVGID_2_" gradientUnits="userSpaceOnUse" x1="-777.0587" y1="249.8896" x2="-779.8848" y2="249.8896" gradientTransform="matrix(10.15 0 0 8.56 7928.5 -2110.0552)">
			<stop  offset="0" style="stop-color:#FFE000"/>
			<stop  offset="0.41" style="stop-color:#FFBD00"/>
			<stop  offset="0.78" style="stop-color:#FFA500"/>
			<stop  offset="1" style="stop-color:#FF9C00"/>
		</linearGradient>
		<path class="st2" d="M33.3,34.1l-4.9-4.9v-0.4l4.9-4.9l0.1,0.1l5.8,3.3c1.7,0.9,1.7,2.5,0,3.4L33.4,34L33.3,34.1z"/>
		
			<linearGradient id="SVGID_3_" gradientUnits="userSpaceOnUse" x1="-811.0659" y1="206.8352" x2="-812.684" y2="208.0837" gradientTransform="matrix(16.68 0 0 12.8698 13557.96 -2629.5232)">
			<stop  offset="0" style="stop-color:#FF3A44"/>
			<stop  offset="1" style="stop-color:#C31162"/>
		</linearGradient>
		<path class="st3" d="M33.4,34l-5-5L13.6,43.8c0.7,0.6,1.7,0.6,2.5,0.1L33.4,34"/>
		
			<linearGradient id="SVGID_4_" gradientUnits="userSpaceOnUse" x1="-812.3115" y1="206.3587" x2="-811.5892" y2="206.9158" gradientTransform="matrix(16.68 0 0 12.8675 13557.96 -2642.0874)">
			<stop  offset="0" style="stop-color:#32A071"/>
			<stop  offset="7.000000e-02" style="stop-color:#2DA771"/>
			<stop  offset="0.48" style="stop-color:#15CF74"/>
			<stop  offset="0.8" style="stop-color:#06E775"/>
			<stop  offset="1" style="stop-color:#00F076"/>
		</linearGradient>
		<path class="st4" d="M33.4,24l-17.3-9.8c-0.7-0.6-1.8-0.5-2.5,0.1L28.4,29L33.4,24z"/>
		<path class="st5" d="M33.3,33.9l-17.2,9.8c-0.7,0.5-1.7,0.5-2.4,0l-0.1,0.1l0.1,0.1c0.7,0.5,1.7,0.5,2.4,0L33.4,34L33.3,33.9z"/>
		<path class="st6" d="M13.6,43.6c-0.4-0.5-0.6-1.1-0.5-1.7v0.2c0,0.6,0.2,1.2,0.6,1.7l0.1-0.1L13.6,43.6z M39.2,30.5l-5.9,3.4
			l0.1,0.1l5.8-3.3c0.7-0.3,1.2-1,1.3-1.7C40.3,29.7,39.8,30.3,39.2,30.5z"/>
		<path class="st7" d="M16.1,14.3l23.1,13.1c0.6,0.3,1.1,0.9,1.3,1.5c-0.1-0.8-0.6-1.4-1.3-1.7l-23.1-13c-1.6-0.9-3-0.2-3,1.7v0.2
			C13.1,14.2,14.4,13.4,16.1,14.3z"/>
	</g>
	<g>
		<path class="st8" d="M80.7,18.4c-2.7,0-4.8,2.2-4.8,4.8s2.2,4.8,4.8,4.8c2.7,0,4.8-2.2,4.8-4.8c0-1.3-0.5-2.5-1.4-3.4
			C83.2,18.8,82,18.3,80.7,18.4z M80.7,26.1c-1.2,0.1-2.3-0.6-2.8-1.7s-0.3-2.4,0.5-3.3s2.1-1.2,3.2-0.7c1.1,0.4,1.9,1.5,1.8,2.7
			c0,0.7-0.2,1.5-0.8,2C82.2,25.7,81.5,26.1,80.7,26.1L80.7,26.1z M70.2,18.4c-2.7,0-4.8,2.2-4.8,4.8s2.2,4.8,4.8,4.8
			c2.7,0,4.8-2.2,4.8-4.8c0-1.3-0.5-2.5-1.4-3.4C72.7,18.8,71.5,18.3,70.2,18.4z M70.2,26.1c-1.2,0.1-2.3-0.6-2.8-1.7
			s-0.3-2.4,0.5-3.3s2.1-1.2,3.2-0.7c1.1,0.4,1.9,1.5,1.8,2.7c0,0.7-0.2,1.5-0.8,2C71.6,25.7,70.9,26.1,70.2,26.1L70.2,26.1z
			 M57.7,19.8v2h4.9c-0.1,1-0.5,1.9-1.1,2.6c-1,1-2.4,1.6-3.8,1.5c-2.9-0.1-5.2-2.5-5.2-5.4s2.3-5.3,5.2-5.4c1.4,0,2.7,0.5,3.7,1.4
			l1.4-1.4c-1.4-1.4-3.2-2.1-5.2-2.1c-2.7-0.1-5.3,1.3-6.7,3.6c-1.4,2.4-1.4,5.3,0,7.7s4,3.8,6.7,3.6c1.9,0.1,3.8-0.7,5.2-2.1
			c1.2-1.3,1.8-3,1.8-4.8c0-0.4,0-0.9-0.1-1.3L57.7,19.8z M108.9,21.4c-0.6-1.8-2.2-3-4.1-3.1c-1.2,0-2.4,0.5-3.3,1.4
			s-1.3,2.1-1.2,3.4c0,1.3,0.5,2.5,1.4,3.4s2.1,1.4,3.4,1.4c1.6,0,3.1-0.8,4-2.1l-1.6-1.1c-0.5,0.8-1.4,1.3-2.4,1.3
			s-1.9-0.5-2.3-1.5l6.5-2.7L108.9,21.4z M102.3,23c-0.1-0.7,0.2-1.4,0.7-1.9s1.2-0.8,1.9-0.9c0.7,0,1.4,0.4,1.8,1
			C106.6,21.2,102.3,23,102.3,23z M97.2,27.7h2V13.5h-2.1L97.2,27.7z M93.7,19.4L93.7,19.4c-0.7-0.7-1.7-1.1-2.7-1
			c-2.7,0-4.8,2.2-4.8,4.8S88.4,28,91,28c1,0,1.9-0.4,2.6-1.1h0.1v0.7c0.1,0.7-0.1,1.5-0.6,2s-1.2,0.8-2,0.8c-1.1,0-2.1-0.7-2.4-1.7
			l-1.8,0.8c0.7,1.7,2.4,2.8,4.3,2.8c2.5,0,4.6-1.4,4.6-5v-8.7h-2L93.7,19.4z M91.3,26.1c-1.5-0.1-2.7-1.4-2.7-2.9s1.2-2.8,2.7-2.9
			c0.7,0,1.4,0.4,1.9,0.9c0.5,0.6,0.7,1.3,0.7,2c0.1,0.7-0.2,1.5-0.7,2C92.7,25.8,92,26.1,91.3,26.1C91.2,26.1,91.3,26.1,91.3,26.1z
			 M118.9,13.5h-5.1v14.1h2.1v-5.4h2.9c1.6,0.1,3.2-0.7,4-2.1s0.8-3.1,0-4.5C122,14.3,120.5,13.5,118.9,13.5z M118.9,20.4h-3v-4.9h3
			c0.9-0.1,1.8,0.4,2.3,1.2c0.5,0.8,0.5,1.8,0,2.5C120.6,20,119.8,20.4,118.9,20.4z M131.9,18.3c-1.6-0.1-3.1,0.8-3.8,2.2l1.9,0.8
			c0.4-0.7,1.1-1.1,1.9-1c0.5-0.1,1.1,0.1,1.5,0.4s0.7,0.8,0.7,1.4v0.1c-0.7-0.4-1.4-0.5-2.2-0.5c-2,0-4.1,1.1-4.1,3.2
			c0,0.9,0.4,1.7,1.1,2.3c0.7,0.6,1.5,0.9,2.4,0.8c1.1,0.1,2.2-0.5,2.7-1.4v1.1h2v-5.4C136.2,19.7,134.3,18.3,131.9,18.3z
			 M131.6,26.1c-0.7,0-1.7-0.3-1.7-1.2c0-1.1,1.2-1.5,2.2-1.5c0.7,0,1.3,0.1,1.9,0.4C134,25.1,132.9,26,131.6,26.1L131.6,26.1z
			 M143.6,18.6l-2.4,6.1h-0.1l-2.5-6.1h-2.3l3.8,8.6L138,32h2.2l5.7-13.3h-2.3V18.6z M124.6,27.7h2.1V13.5h-2.1V27.7z"/>
		<g>
			<path class="st8" d="M58.6,37.5L58.6,37.5l-0.9,0.3l0.1,0.1c0.4,0.5,0.7,1,1,1.6l0.1,0.1l0.7-0.3v-0.1l0.1-0.1
				C59.3,38.5,59,38,58.6,37.5z"/>
			<path class="st8" d="M57.4,37.9L57.4,37.9l-0.9,0.3l0.1,0.1c0.4,0.5,0.7,1,0.9,1.6l0.1,0.1l0.7-0.3v-0.1h0.1v-0.2h-0.1
				C58,38.9,57.7,38.4,57.4,37.9z"/>
			<path class="st8" d="M54.3,40.4c0-1.5,1-2.9,2.4-3.4c0.7-0.1,1.4-0.2,2.2-0.2H59v-1.2h-0.1c-0.8,0-1.8,0.1-3,0.2
				c-2,0.2-4.1,0.4-4.9,0.5l0,0c-0.2,0.1-0.5,0.1-0.9,0.1H50l0.1,1.3h0.1c1-0.2,3.2-0.4,4.5-0.6c0.1,0,0.2,0,0.2,0
				c-1.1,0.9-1.7,2.2-1.8,3.6c0,2.5,2.3,3.7,4.6,3.8h0.1l0.4-1.2H58C56.9,43.2,54.3,42.8,54.3,40.4z"/>
			<path class="st8" d="M76.4,37.3c0.8,0.1,1.5,0.1,2.3,0.1s1.6,0,2.3-0.1h0.1v-1.2H81c-1.5,0.2-3.1,0.2-4.6,0h-0.1L76.4,37.3
				L76.4,37.3z"/>
			<path class="st8" d="M123,36.6L123,36.6l0.3-1.1h-0.1c-1.6,0-3.2-0.2-4.8-0.5h-0.1l-0.2,1.1h0.1C119.4,36.3,121.7,36.5,123,36.6z
				"/>
			<path class="st8" d="M66.3,38.6h4v-1.1h-4v-1.6c1.2-0.1,2.3-0.3,3.5-0.7l0.2-0.1l-0.8-0.9h-0.1c-2.5,0.6-5.1,0.9-7.7,1h-0.2
				l0.1,0.2c0.1,0.2,0.2,0.5,0.2,0.7v0.1h0.1c1.2-0.1,2.4-0.1,3.6-0.3v1.5h-3.9v1.1h3.9v1.6h-4.7v1.1h4.7v2.4c0,0.1,0,0.2-0.2,0.2
				h-2.3l0.1,0.2c0.1,0.3,0.3,0.5,0.4,0.8v0.1h0.1c0.2,0,0.4,0,0.7,0c0.6,0,1.2-0.1,1.7-0.2c0.5-0.2,0.7-0.5,0.7-1.1v-2.4h4.7v-1.1
				h-4.7L66.3,38.6L66.3,38.6z"/>
			<path class="st8" d="M111,40.9c-0.1-0.9-0.1-1.9-0.1-2.6c0.9,0,2.2-0.1,3.2-0.2h0.1V37h-0.1c-1,0.1-2.3,0.2-3.2,0.2
				c0-0.1,0-0.2,0-0.3c0-0.3,0-0.5,0-0.7s0-0.4,0-0.6c0-0.2,0-0.4,0-0.5V35h-1.4v0.1c0.1,0.3,0.1,0.7,0.1,1v2.1c0,0.3,0,0.7,0,1.1
				c0,0.5,0,0.9,0,1.4c-0.3,0-0.6,0-0.8,0c-2.2,0-3,1-3,2c0,1.2,1,1.9,2.8,1.9c1.4,0,2.2-0.7,2.2-1.8v-0.6c1,0.4,1.9,1,2.7,1.8
				l0.1,0.1l0.7-1.1l-0.1-0.1C113.5,42,112.3,41.3,111,40.9z M109.9,42.4c0,0.7-0.4,1-1.1,1c-0.6,0-1.6-0.1-1.6-0.8
				c0-0.6,0.6-0.9,1.7-0.9c0.3,0,0.7,0,1,0.1C109.9,42.1,109.9,42.3,109.9,42.4z"/>
			<path class="st8" d="M123.3,38.2c-0.6-0.5-1.3-0.8-2.1-0.7c-1.1,0.1-2.3,0.2-3.4,0.5c-0.1,0-0.2,0-0.2,0
				c-0.3,0.1-0.5,0.1-0.8,0.1h-0.2l0.4,1.3h0.1c0.1,0,0.1-0.1,0.2-0.1c0.2-0.1,0.5-0.2,0.7-0.2c1-0.3,2-0.5,3-0.6l0,0
				c0.4-0.1,0.9,0,1.3,0.3s0.6,0.7,0.6,1.2c0,2.4-2.9,3.1-4.6,3.3h-0.2l0.7,1.1h0.1c3.3-0.5,5.2-2.1,5.2-4.4
				C124.2,39.4,123.9,38.7,123.3,38.2z"/>
			<path class="st8" d="M104.2,42c-0.4,0.5-1,0.8-1.6,0.9c-0.4,0-0.5-0.3-0.5-0.6c0-0.6,0.1-1.3,0.2-2.1s0.2-1.5,0.2-2.1
				c0-0.5-0.1-0.9-0.5-1.2c-0.3-0.3-0.8-0.5-1.3-0.4c-1.3,0.2-2.4,0.8-3.3,1.8c0-0.1-0.1-0.2,0-0.3s0.2-0.3,0.3-0.4
				c0.1-0.1,0.2-0.3,0.2-0.4L98,37l-0.4-0.4c0-0.4,0.1-0.7,0.1-1s0.1-0.5,0.1-0.6v-0.1h-1.3V35c0,0.3,0,0.5,0,0.8v1
				C95.8,36.9,95.3,37,95,37c-0.2,0-0.5,0-0.7,0h-0.2l0.1,1.2l2.2-0.3v0.9c-0.6,0.9-1.9,2.6-2.5,3.4l0.1,0l0.5,1l0.1-0.2
				c0.5-0.6,1.1-1.5,1.6-2.3l0,0v3.7h1.2v-4.7c0.8-1,1.9-1.8,3.2-2.1c0.5,0,0.8,0.3,0.8,0.8s-0.1,1.2-0.2,1.9
				c-0.1,0.8-0.2,1.6-0.2,2.3c0,1,0.5,1.6,1.4,1.6c0.8,0,1.6-0.4,2.2-1l0,0l-0.2-1.3L104.2,42z"/>
			<path class="st8" d="M88.8,35.1L88.8,35.1L84.9,35v1.1h2.8c0,0.4,0.1,0.8,0.1,1.2l-0.5-0.1v0.1c-0.7,3.4-2.2,5.5-4.5,6.7
				l-0.2,0.1l0.2,0.1c0.3,0.2,0.5,0.4,0.8,0.7l0.1,0.1l0.1-0.1c2.2-1.3,3.8-3.5,4.5-5.9c0.7,2.5,2.3,4.6,4.4,5.9l0.1,0.1l0.1-0.1
				c0.2-0.3,0.4-0.5,0.7-0.7l0.1-0.1L93.4,44C90.3,42.1,88.5,38.7,88.8,35.1z"/>
			<path class="st8" d="M74.1,40.4c-0.1,0.3-0.3,0.7-0.4,1.1c0-0.3,0-0.7,0-1c0.1-1.4,0.2-2.9,0.5-4.3c0-0.1,0-0.2,0.1-0.3
				c0.1-0.2,0.1-0.4,0.1-0.5v-0.1l-1.3-0.1v0.1c0,0.1,0,0.2,0,0.4c0,0.1,0,0.3,0,0.4c-0.3,1.5-0.4,3-0.5,4.5c0,1.2,0.2,2.4,0.5,3.6
				v0.1h1v-0.5c0-0.2,0-0.3,0-0.5c0.2-0.8,0.5-1.7,0.8-2.5v-0.1l-0.7-0.5L74.1,40.4z"/>
			<path class="st8" d="M78.5,42.8c-1.8,0-1.8-0.7-1.8-0.9c0-0.3,0-0.7,0.1-1v-0.2h-1v0.1c-0.1,0.4-0.2,0.9-0.2,1.4
				c0,0.8,0.5,1.8,2.9,1.8c0.1,0,0.1,0,0.2,0c0.9,0,1.8-0.1,2.6-0.2h0.1v-1.2h-0.2C80.4,42.8,79.5,42.8,78.5,42.8z"/>
		</g>
	</g>
</g>
</svg>
