<svg xmlns="http://www.w3.org/2000/svg" width="302.416" height="162.079" viewBox="0 0 302.416 162.079">
  <g id="グループ_98" data-name="グループ 98" transform="translate(0)">
    <g id="グループ_1" data-name="グループ 1" transform="translate(0)">
      <path id="パス_61" data-name="パス 61" d="M485.977,267.02a25.057,25.057,0,0,0-4.089-7.348,30.739,30.739,0,0,0-6.983-6.324,76.687,76.687,0,0,0-11.695-6.081c-4.845-2.1-8.292-4.053-10.27-5.79a7.624,7.624,0,0,1-2.538-5.941,7.829,7.829,0,0,1,3.42-6.291c2.182-1.6,8.274-4.266,15.6-.214a33.347,33.347,0,0,1,5.95,5.157,1,1,0,0,0,1.238.08l8.524-6.92a.819.819,0,0,0,.143-1.149,27.228,27.228,0,0,0-11.114-8.657,33.382,33.382,0,0,0-13.111-2.824,24.458,24.458,0,0,0-16.746,6.12,19.31,19.31,0,0,0-6.938,14.9,18.884,18.884,0,0,0,1.238,6.84,23.905,23.905,0,0,0,3.866,6.377,27.03,27.03,0,0,0,6.235,5.5,67.687,67.687,0,0,0,10.1,4.988,51.94,51.94,0,0,1,9.254,4.666,17.146,17.146,0,0,1,4.718,5.033,11.24,11.24,0,0,1,1.87,5.932,10.492,10.492,0,0,1-3.565,8.168,12.7,12.7,0,0,1-8.907,3.242c-7.571,0-13.049-4.133-16.763-12.63a1.11,1.11,0,0,0-1.078-.524l-10.51,2.993a.891.891,0,0,0-.543.436.839.839,0,0,0-.045.668c2.674,7.268,6.645,12.808,11.695,16.451a29.393,29.393,0,0,0,17.609,5.531,24.208,24.208,0,0,0,17.538-7.125,23.255,23.255,0,0,0,7.269-17.1,24.728,24.728,0,0,0-1.372-8.159Z" transform="translate(-184.932 -214.47)" fill="#fff"/>
      <path id="パス_62" data-name="パス 62" d="M406.986,216.82h-9.94a1.425,1.425,0,0,0-1.425,1.425v32.278H363.272V218.245a1.425,1.425,0,0,0-1.416-1.425h-10.03a1.425,1.425,0,0,0-1.415,1.425v77.943a1.415,1.415,0,0,0,1.415,1.415h10.065a1.415,1.415,0,0,0,1.415-1.415V263.9h32.35v32.287a1.415,1.415,0,0,0,1.425,1.415h9.94a1.425,1.425,0,0,0,1.425-1.415V218.245a1.425,1.425,0,0,0-1.46-1.425Z" transform="translate(-175.886 -214.701)" fill="#fff"/>
      <path id="パス_63" data-name="パス 63" d="M226.076,300.213h-3.565c-7.642,0-13.832-1.594-18.243-4.534,12.6-6.52,21.447-21.483,21.447-38.869,0-23.354-15.97-42.361-35.627-42.361s-35.627,19.007-35.627,42.361c0,23.157,15.675,42,35.057,42.352,6.021,8.141,16.8,13.984,32.955,13.984h3.566a1.416,1.416,0,0,0,1.425-1.415V301.665a1.415,1.415,0,0,0-1.389-1.452ZM167.345,256.8c0-16.442,10.216-29.82,22.766-29.82s22.766,13.36,22.766,29.82c0,13.3-6.662,24.574-15.837,28.422A22.966,22.966,0,0,1,196.6,280v-9.326a1.425,1.425,0,0,0-1.425-1.425H185.123a1.425,1.425,0,0,0-1.425,1.425v9.263a48.967,48.967,0,0,0,.32,5.59c-9.61-3.515-16.673-15.049-16.673-28.73Z" transform="translate(-154.461 -214.441)" fill="#fff"/>
      <path id="パス_64" data-name="パス 64" d="M287.827,214.44c-19.639,0-35.627,19.007-35.627,42.361s15.97,42.369,35.627,42.369,35.627-19,35.627-42.369S307.458,214.44,287.827,214.44Zm0,72.2c-12.559,0-22.766-13.36-22.766-29.838s10.207-29.82,22.766-29.82,22.757,13.36,22.757,29.82S300.377,286.638,287.827,286.638Z" transform="translate(-165.149 -214.44)" fill="#fff"/>
    </g>
    <g id="グループ_2" data-name="グループ 2" transform="translate(77.389 125.874)">
      <path id="パス_47" data-name="パス 47" d="M185.527,365.812h5.625l.518,3.516h.133c2.217-2.3,4.646-4.168,8.071-4.168a7.142,7.142,0,0,1,7.221,4.592c2.4-2.535,4.922-4.592,8.35-4.592,5.589,0,8.164,3.985,8.164,10.553v16.367h-6.916V376.553c0-4.075-1.181-5.482-3.663-5.482q-2.243,0-5.057,2.96v18.053h-6.846V376.553c0-4.075-1.221-5.482-3.7-5.482-1.5,0-3.2.982-5.017,2.96v18.053h-6.9Z" transform="translate(-111.422 -356.544)" fill="#fff"/>
      <path id="パス_52" data-name="パス 52" d="M309.78,378.943c0-8.482,6-13.779,12.239-13.779,7.235,0,10.978,5.313,10.978,12.518a12.359,12.359,0,0,1-.359,3.2H316.5a6.9,6.9,0,0,0,7.261,6.571,10.832,10.832,0,0,0,5.907-1.832l2.349,4.219a16.579,16.579,0,0,1-9.146,2.907C315.5,392.732,309.78,387.621,309.78,378.943Zm17.256-2.656c0-3.516-1.593-5.761-4.978-5.761-2.761,0-5.2,1.965-5.721,5.761Z" transform="translate(-186.362 -356.541)" fill="#fff"/>
      <path id="パス_59" data-name="パス 59" d="M442.69,378.943c0-8.722,6.053-13.779,12.624-13.779s12.611,5.057,12.611,13.779-6.053,13.792-12.611,13.792S442.69,387.674,442.69,378.943Zm18.2,0c0-4.911-2.017-8.15-5.575-8.15s-5.589,3.239-5.589,8.15,2.017,8.164,5.589,8.164S460.889,383.917,460.889,378.943Z" transform="translate(-405.356 -356.541)" fill="#fff"/>
      <path id="パス_62-2" data-name="パス 62" d="M375.58,216.82h-4.422a.634.634,0,0,0-.634.634v14.36H356.133v-14.36a.634.634,0,0,0-.63-.634h-4.462a.634.634,0,0,0-.63.634v34.675a.63.63,0,0,0,.63.63h4.478a.63.63,0,0,0,.63-.63V237.765H370.54v14.364a.63.63,0,0,0,.634.63H375.6a.634.634,0,0,0,.634-.63V217.454a.634.634,0,0,0-.65-.634Z" transform="translate(-350.411 -216.82)" fill="#fff"/>
    </g>
  </g>
</svg>
